{
	"bufferViews":[{
		"buffer":0,
		"byteOffset":0,
		"byteLength":19614,
		"target":34963
	},
	{
		"buffer":0,
		"byteOffset":19616,
		"byteLength":59680,
		"target":34962,
		"byteStride":32
	}],
	"asset":{
		"version":"2.0",
		"generator":"Epic Games Unreal Engine 5.1.1-23901901+++UE5+Release-5.1"
	},
	"scenes":[{
		"nodes":[0]
	}],
	"nodes":[{
		"name":"김예주",
		"mesh":0,
		"translation":[3.353086233139038,
		-14.632000923156739,
		51.22563552856445],
		"rotation":[0.0,
		0.0,
		0.0,
		-1.0],
		"scale":[0.1076892614364624,
		0.1076892614364624,
		0.1076892614364624]
	}],
	"meshes":[{
		"name":"김예주",
		"primitives":[{
			"attributes":{
				"POSITION":1,
				"NORMAL":2,
				"TEXCOORD_0":3
			},
			"indices":0,
			"material":0
		}]
	}],
	"accessors":[{
		"bufferView":0,
		"type":"SCALAR",
		"count":9807,
		"componentType":5123,
		"min":[0],
		"byteOffset":0,
		"max":[1864]
	},
	{
		"bufferView":1,
		"type":"VEC3",
		"count":1865,
		"componentType":5126,
		"min":[-5.708886623382568,
		-0.3428105413913727,
		-6.134600639343262],
		"byteOffset":0,
		"max":[5.708886623382568,
		0.9457106590270996,
		3.8449950218200685]
	},
	{
		"bufferView":1,
		"type":"VEC3",
		"count":1865,
		"componentType":5126,
		"min":[-0.9979903697967529,
		-1.0,
		-0.9998195171356201],
		"byteOffset":12,
		"max":[0.9979903697967529,
		1.0,
		0.9957160949707031]
	},
	{
		"bufferView":1,
		"type":"VEC2",
		"count":1865,
		"componentType":5126,
		"min":[0.00048828125,
		0.00048828125],
		"byteOffset":24,
		"max":[0.98828125,
		0.99853515625]
	}],
	"buffers":[{
		"uri":"data:application/octet-stream;base64,",
		"byteLength":79296
	}],
	"materials":[{
		"pbrMetallicRoughness":{
			"baseColorFactor":[1.0,
			0.25,
			0.0,
			1.0],
			"metallicFactor":0.0,
			"roughnessFactor":0.5678071905112637
		},
		"emissiveFactor":[0.0,
		0.0,
		0.0],
		"alphaMode":"OPAQUE",
		"doubleSided":false,
		"name":"MI_Hot_Blued_Steel_shlaednc_4K"
	}]
}