{
	"bufferViews":[{
		"buffer":0,
		"byteOffset":0,
		"byteLength":2640,
		"target":34963
	},
	{
		"buffer":0,
		"byteOffset":2640,
		"byteLength":18976,
		"target":34962,
		"byteStride":32
	}],
	"asset":{
		"version":"2.0",
		"generator":"Epic Games Unreal Engine 5.1.1-23901901+++UE5+Release-5.1"
	},
	"scenes":[{
		"nodes":[0]
	}],
	"nodes":[{
		"name":"백승은",
		"mesh":0,
		"translation":[15.69937515258789,
		-5.639501094818115,
		49.26091384887695],
		"rotation":[0.0,
		-1.0106430784888625e-15,
		0.0,
		1.0],
		"scale":[0.5546984672546387,
		0.5546984672546387,
		0.5546984672546387]
	}],
	"meshes":[{
		"name":"백승은",
		"primitives":[{
			"attributes":{
				"POSITION":1,
				"NORMAL":2,
				"TEXCOORD_0":3
			},
			"indices":0,
			"material":0
		}]
	}],
	"accessors":[{
		"bufferView":0,
		"type":"SCALAR",
		"count":1320,
		"componentType":5123,
		"min":[0],
		"byteOffset":0,
		"max":[592]
	},
	{
		"bufferView":1,
		"type":"VEC3",
		"count":593,
		"componentType":5126,
		"min":[-1.3321870565414429,
		-1.3506540060043336,
		-1.168571949005127],
		"byteOffset":0,
		"max":[1.2921550273895264,
		1.143334984779358,
		1.3544460535049439]
	},
	{
		"bufferView":1,
		"type":"VEC3",
		"count":593,
		"componentType":5126,
		"min":[-1.0,
		-1.0,
		-1.0],
		"byteOffset":12,
		"max":[1.0,
		1.0,
		1.0]
	},
	{
		"bufferView":1,
		"type":"VEC2",
		"count":593,
		"componentType":5126,
		"min":[0.0004954338073730469,
		0.0005068778991699219],
		"byteOffset":24,
		"max":[0.99951171875,
		0.99951171875]
	}],
	"buffers":[{
		"uri":"data:application/octet-stream;base64,",
		"byteLength":21616
	}],
	"materials":[{
		"pbrMetallicRoughness":{
			"baseColorFactor":[0.22,
			0.17049999999999994,
			0.154,
			0.78],
			"metallicFactor":1.0,
			"roughnessFactor":0.37
		},
		"emissiveFactor":[0.0,
		0.0,
		0.0],
		"alphaMode":"BLEND",
		"doubleSided":false,
		"name":"MI_Cracked_Shale_Beach_Rock_ve4lfbng_4K"
	}]
}