{
	"bufferViews":[{
		"buffer":0,
		"byteOffset":0,
		"byteLength":196608,
		"target":34963
	},
	{
		"buffer":0,
		"byteOffset":196608,
		"byteLength":532512,
		"target":34962,
		"byteStride":32
	}],
	"asset":{
		"version":"2.0",
		"generator":"Epic Games Unreal Engine 5.1.1-23901901+++UE5+Release-5.1"
	},
	"scenes":[{
		"nodes":[0]
	}],
	"nodes":[{
		"name":"신지우",
		"mesh":0,
		"translation":[18.465673446655275,
		-6.07263708114624,
		49.4067268371582],
		"rotation":[0.0,
		0.0,
		0.0,
		-1.0],
		"scale":[0.838546872138977,
		0.838546872138977,
		0.838546872138977]
	}],
	"meshes":[{
		"name":"신지우",
		"primitives":[{
			"attributes":{
				"POSITION":1,
				"NORMAL":2,
				"TEXCOORD_0":3
			},
			"indices":0,
			"material":0
		}]
	}],
	"accessors":[{
		"bufferView":0,
		"type":"SCALAR",
		"count":98304,
		"componentType":5123,
		"min":[0],
		"byteOffset":0,
		"max":[16640]
	},
	{
		"bufferView":1,
		"type":"VEC3",
		"count":16641,
		"componentType":5126,
		"min":[-0.7699999809265137,
		-0.7699999809265137,
		-0.25],
		"byteOffset":0,
		"max":[0.7699999809265137,
		0.7699999809265137,
		0.25]
	},
	{
		"bufferView":1,
		"type":"VEC3",
		"count":16641,
		"componentType":5126,
		"min":[-1.0,
		-1.0,
		-1.0],
		"byteOffset":12,
		"max":[1.0,
		1.0,
		1.0]
	},
	{
		"bufferView":1,
		"type":"VEC2",
		"count":16641,
		"componentType":5126,
		"min":[0.0,
		0.0],
		"byteOffset":24,
		"max":[1.0,
		1.0]
	}],
	"buffers":[{
		"uri":"data:application/octet-stream;base64,",
		"byteLength":729120
	}],
	"materials":[{
		"pbrMetallicRoughness":{
			"baseColorFactor":[1.0,
			0.31999999999999997,
			0.5013333333333339,
			1.0],
			"metallicFactor":1.0,
			"roughnessFactor":0.1
		},
		"emissiveFactor":[0.0,
		0.0,
		0.0],
		"alphaMode":"OPAQUE",
		"doubleSided":false,
		"name":"MI_Hot_Blued_Steel_shlaednc_4K"
	}]
}