{
	"bufferViews":[{
		"buffer":0,
		"byteOffset":0,
		"byteLength":47208,
		"target":34963
	},
	{
		"buffer":0,
		"byteOffset":47208,
		"byteLength":190592,
		"target":34962,
		"byteStride":32
	}],
	"asset":{
		"version":"2.0",
		"generator":"Epic Games Unreal Engine 5.1.1-23901901+++UE5+Release-5.1"
	},
	"scenes":[{
		"nodes":[0]
	}],
	"nodes":[{
		"name":"안명지",
		"mesh":0,
		"translation":[3.9208197593688967,
		-22.113773345947267,
		52.906768798828128],
		"rotation":[0.0,
		0.0,
		0.0,
		-1.0],
		"scale":[0.7401708364486694,
		0.7401708364486694,
		0.7401708364486694]
	}],
	"meshes":[{
		"name":"안명지",
		"primitives":[{
			"attributes":{
				"POSITION":1,
				"NORMAL":2,
				"TEXCOORD_0":3
			},
			"indices":0,
			"material":0
		}]
	}],
	"accessors":[{
		"bufferView":0,
		"type":"SCALAR",
		"count":23604,
		"componentType":5123,
		"min":[0],
		"byteOffset":0,
		"max":[5955]
	},
	{
		"bufferView":1,
		"type":"VEC3",
		"count":5956,
		"componentType":5126,
		"min":[-0.6950064301490784,
		-0.6950064897537231,
		-0.5198555588722229],
		"byteOffset":0,
		"max":[0.6950064301490784,
		0.6950064897537231,
		0.5198555588722229]
	},
	{
		"bufferView":1,
		"type":"VEC3",
		"count":5956,
		"componentType":5126,
		"min":[-1.0,
		-0.9992097020149231,
		-1.0],
		"byteOffset":12,
		"max":[1.0,
		0.9992238879203796,
		1.0]
	},
	{
		"bufferView":1,
		"type":"VEC2",
		"count":5956,
		"componentType":5126,
		"min":[-0.02099609375,
		-0.0185394287109375],
		"byteOffset":24,
		"max":[1.0205078125,
		1.01171875]
	}],
	"buffers":[{
		"uri":"data:application/octet-stream;base64,",
		"byteLength":237800
	}],
	"materials":[{
		"pbrMetallicRoughness":{
			"baseColorFactor":[0.23569499999999997,
			0.5700000000000001,
			0.1767,
			1.0],
			"metallicFactor":0.0,
			"roughnessFactor":0.5678071905112637
		},
		"emissiveFactor":[0.0,
		0.0,
		0.0],
		"alphaMode":"OPAQUE",
		"doubleSided":false,
		"name":"MI_Hot_Blued_Steel_shlaednc_4K"
	}]
}