{
	"bufferViews":[{
		"buffer":0,
		"byteOffset":0,
		"byteLength":384,
		"target":34963
	},
	{
		"buffer":0,
		"byteOffset":384,
		"byteLength":4640,
		"target":34962,
		"byteStride":32
	}],
	"asset":{
		"version":"2.0",
		"generator":"Epic Games Unreal Engine 5.1.1-23901901+++UE5+Release-5.1"
	},
	"scenes":[{
		"nodes":[0]
	}],
	"nodes":[{
		"name":"양지원수정",
		"mesh":0,
		"translation":[25.31978988647461,
		-10.947163581848145,
		50.542457580566409],
		"rotation":[0.0,
		-6.108217692260001e-16,
		0.0,
		-1.0],
		"scale":[1.0540674924850464,
		1.0540674924850464,
		1.0540674924850464]
	}],
	"meshes":[{
		"name":"양지원수정",
		"primitives":[{
			"attributes":{
				"POSITION":1,
				"NORMAL":2,
				"TEXCOORD_0":3
			},
			"indices":0,
			"material":0
		}]
	}],
	"accessors":[{
		"bufferView":0,
		"type":"SCALAR",
		"count":192,
		"componentType":5123,
		"min":[0],
		"byteOffset":0,
		"max":[144]
	},
	{
		"bufferView":1,
		"type":"VEC3",
		"count":145,
		"componentType":5126,
		"min":[-0.9238799810409546,
		-0.9238799810409546,
		-0.5750000476837158],
		"byteOffset":0,
		"max":[0.9238799810409546,
		0.9238799810409546,
		0.5750000476837158]
	},
	{
		"bufferView":1,
		"type":"VEC3",
		"count":145,
		"componentType":5126,
		"min":[-0.9492847323417664,
		-0.9492847323417664,
		-0.7808725833892822],
		"byteOffset":12,
		"max":[0.9492847323417664,
		0.9492847323417664,
		1.0]
	},
	{
		"bufferView":1,
		"type":"VEC2",
		"count":145,
		"componentType":5126,
		"min":[0.0,
		0.0],
		"byteOffset":24,
		"max":[1.0,
		1.0]
	}],
	"buffers":[{
		"uri":"data:application/octet-stream;base64,",
		"byteLength":5024
	}],
	"materials":[{
		"pbrMetallicRoughness":{
			"baseColorFactor":[0.2158605009317398,
			0.2158605009317398,
			0.2158605009317398,
			0.0],
			"metallicFactor":1.0,
			"roughnessFactor":1.0
		},
		"emissiveFactor":[0.0,
		0.0,
		0.0],
		"alphaMode":"BLEND",
		"doubleSided":false,
		"name":"4684"
	}]
}