{
	"bufferViews":[{
		"buffer":0,
		"byteOffset":0,
		"byteLength":96192,
		"target":34963
	},
	{
		"buffer":0,
		"byteOffset":96192,
		"byteLength":292032,
		"target":34962,
		"byteStride":32
	}],
	"asset":{
		"version":"2.0",
		"generator":"Epic Games Unreal Engine 5.1.1-23901901+++UE5+Release-5.1"
	},
	"scenes":[{
		"nodes":[0]
	}],
	"nodes":[{
		"name":"원한주",
		"mesh":0,
		"translation":[22.143091201782228,
		-27.992008209228517,
		54.266685485839847],
		"rotation":[0.0,
		0.0,
		0.0,
		-1.0],
		"scale":[0.8742929100990295,
		0.8742929100990295,
		0.8742929100990295]
	}],
	"meshes":[{
		"name":"원한주",
		"primitives":[{
			"attributes":{
				"POSITION":1,
				"NORMAL":2,
				"TEXCOORD_0":3
			},
			"indices":0,
			"material":0
		}]
	}],
	"accessors":[{
		"bufferView":0,
		"type":"SCALAR",
		"count":48096,
		"componentType":5123,
		"min":[0],
		"byteOffset":0,
		"max":[9125]
	},
	{
		"bufferView":1,
		"type":"VEC3",
		"count":9126,
		"componentType":5126,
		"min":[-0.9698309302330017,
		-0.2569180428981781,
		-0.9654024243354797],
		"byteOffset":0,
		"max":[0.9698309302330017,
		0.2569180428981781,
		0.9654024243354797]
	},
	{
		"bufferView":1,
		"type":"VEC3",
		"count":9126,
		"componentType":5126,
		"min":[-0.9993051886558533,
		-0.9999879598617554,
		-0.9994057416915894],
		"byteOffset":12,
		"max":[0.9993039965629578,
		0.999988317489624,
		0.9994049072265625]
	},
	{
		"bufferView":1,
		"type":"VEC2",
		"count":9126,
		"componentType":5126,
		"min":[0.00045418739318847656,
		0.00045490264892578125],
		"byteOffset":24,
		"max":[0.99951171875,
		0.99951171875]
	}],
	"buffers":[{
		"uri":"data:application/octet-stream;base64,",
		"byteLength":388224
	}],
	"materials":[{
		"pbrMetallicRoughness":{
			"baseColorFactor":[0.91,
			0.2881666666666667,
			0.0,
			1.0],
			"metallicFactor":1.0,
			"roughnessFactor":0.37
		},
		"emissiveFactor":[0.0,
		0.0,
		0.0],
		"alphaMode":"OPAQUE",
		"doubleSided":false,
		"name":"MI_Cracked_Shale_Beach_Rock_ve4lfbng_4K"
	}]
}