{
	"bufferViews":[{
		"buffer":0,
		"byteOffset":0,
		"byteLength":360,
		"target":34963
	},
	{
		"buffer":0,
		"byteOffset":360,
		"byteLength":3840,
		"target":34962,
		"byteStride":32
	}],
	"asset":{
		"version":"2.0",
		"generator":"Epic Games Unreal Engine 5.1.1-23901901+++UE5+Release-5.1"
	},
	"scenes":[{
		"nodes":[0]
	}],
	"nodes":[{
		"name":"유동재",
		"mesh":0,
		"translation":[25.521055221557618,
		-24.324846267700197,
		53.553401947021487],
		"rotation":[0.0,
		0.0,
		7.450580596923828e-9,
		-1.0],
		"scale":[0.9942675828933716,
		0.9942675828933716,
		0.9942675828933716]
	}],
	"meshes":[{
		"name":"유동재",
		"primitives":[{
			"attributes":{
				"POSITION":1,
				"NORMAL":2,
				"TEXCOORD_0":3
			},
			"indices":0,
			"material":0
		}]
	}],
	"accessors":[{
		"bufferView":0,
		"type":"SCALAR",
		"count":180,
		"componentType":5123,
		"min":[0],
		"byteOffset":0,
		"max":[119]
	},
	{
		"bufferView":1,
		"type":"VEC3",
		"count":120,
		"componentType":5126,
		"min":[-0.6327390074729919,
		-0.6327390074729919,
		-0.6327394843101502],
		"byteOffset":0,
		"max":[0.6327390074729919,
		0.6327390074729919,
		0.6327394843101502]
	},
	{
		"bufferView":1,
		"type":"VEC3",
		"count":120,
		"componentType":5126,
		"min":[-1.0,
		-1.0,
		-1.0],
		"byteOffset":12,
		"max":[1.0,
		1.0,
		1.0]
	},
	{
		"bufferView":1,
		"type":"VEC2",
		"count":120,
		"componentType":5126,
		"min":[0.0,
		0.0],
		"byteOffset":24,
		"max":[1.0,
		1.0]
	}],
	"buffers":[{
		"uri":"data:application/octet-stream;base64,",
		"byteLength":4200
	}],
	"materials":[{
		"pbrMetallicRoughness":{
			"baseColorFactor":[0.22,
			0.17049999999999994,
			0.154,
			0.78],
			"metallicFactor":1.0,
			"roughnessFactor":0.37
		},
		"emissiveFactor":[0.0,
		0.0,
		0.0],
		"alphaMode":"BLEND",
		"doubleSided":false,
		"name":"MI_Cracked_Shale_Beach_Rock_ve4lfbng_4K"
	}]
}