{
	"bufferViews":[{
		"buffer":0,
		"byteOffset":0,
		"byteLength":46818,
		"target":34963
	},
	{
		"buffer":0,
		"byteOffset":46820,
		"byteLength":170656,
		"target":34962,
		"byteStride":32
	},
	{
		"buffer":1,
		"byteOffset":0,
		"byteLength":30078,
		"target":34963
	},
	{
		"buffer":1,
		"byteOffset":30080,
		"byteLength":128064,
		"target":34962,
		"byteStride":32
	}],
	"asset":{
		"version":"2.0",
		"generator":"Epic Games Unreal Engine 5.1.1-23901901+++UE5+Release-5.1"
	},
	"scenes":[{
		"nodes":[0]
	}],
	"nodes":[{
		"name":"Merge2",
		"translation":[17.179187774658204,
		-29.866268157958986,
		54.679786682128909],
		"rotation":[0.10734489560127258,
		0.0,
		0.0,
		-0.9942218661308289],
		"scale":[1.0,
		1.0,
		1.0],
		"children":[1,
		2]
	},
	{
		"name":"Merge2-4684",
		"mesh":0
	},
	{
		"name":"Merge2-MI_Hot_Blued_Steel_shlaednc_4K",
		"mesh":1
	}],
	"meshes":[{
		"name":"Merge2-4684",
		"primitives":[{
			"attributes":{
				"POSITION":1,
				"NORMAL":2,
				"TEXCOORD_0":3
			},
			"indices":0,
			"material":0
		}]
	},
	{
		"name":"Merge2-MI_Hot_Blued_Steel_shlaednc_4K",
		"primitives":[{
			"attributes":{
				"POSITION":5,
				"NORMAL":6,
				"TEXCOORD_0":7
			},
			"indices":4,
			"material":1
		}]
	}],
	"accessors":[{
		"bufferView":0,
		"type":"SCALAR",
		"count":23409,
		"componentType":5123,
		"min":[0],
		"byteOffset":0,
		"max":[5332]
	},
	{
		"bufferView":1,
		"type":"VEC3",
		"count":5333,
		"componentType":5126,
		"min":[-0.9960646629333496,
		-0.22048737108707429,
		-0.5228016972541809],
		"byteOffset":0,
		"max":[0.9960646629333496,
		0.22048737108707429,
		0.5228016972541809]
	},
	{
		"bufferView":1,
		"type":"VEC3",
		"count":5333,
		"componentType":5126,
		"min":[-0.9970715641975403,
		-0.9970647692680359,
		-1.0],
		"byteOffset":12,
		"max":[0.9971479773521423,
		0.9970622658729553,
		0.9999998807907105]
	},
	{
		"bufferView":1,
		"type":"VEC2",
		"count":5333,
		"componentType":5126,
		"min":[0.0,
		0.00146484375],
		"byteOffset":24,
		"max":[0.99853515625,
		1.0]
	},
	{
		"bufferView":2,
		"type":"SCALAR",
		"count":15039,
		"componentType":5123,
		"min":[0],
		"byteOffset":0,
		"max":[4001]
	},
	{
		"bufferView":3,
		"type":"VEC3",
		"count":4002,
		"componentType":5126,
		"min":[-0.140477254986763,
		0.14541098475456239,
		-0.3030175268650055],
		"byteOffset":0,
		"max":[0.29207825660705569,
		0.20356790721416474,
		0.12888149917125703]
	},
	{
		"bufferView":3,
		"type":"VEC3",
		"count":4002,
		"componentType":5126,
		"min":[-0.9970458745956421,
		-0.9971243143081665,
		-0.9999891519546509],
		"byteOffset":12,
		"max":[0.9970458745956421,
		0.9970622658729553,
		0.9999891519546509]
	},
	{
		"bufferView":3,
		"type":"VEC2",
		"count":4002,
		"componentType":5126,
		"min":[0.0989990234375,
		0.00146484375],
		"byteOffset":24,
		"max":[0.69140625,
		1.0]
	}],
	"buffers":[{
		"uri":"data:application/octet-stream;base64,",
		"byteLength":217476
	},
	{
		"uri":"data:application/octet-stream;base64,",
		"byteLength":158144
	}],
	"materials":[{
		"pbrMetallicRoughness":{
			"baseColorFactor":[0.2158605009317398,
			0.2158605009317398,
			0.2158605009317398,
			0.0],
			"metallicFactor":0.0,
			"roughnessFactor":0.5
		},
		"emissiveFactor":[0.0,
		0.0,
		0.0],
		"alphaMode":"BLEND",
		"doubleSided":false,
		"name":"4684"
	},
	{
		"pbrMetallicRoughness":{
			"baseColorFactor":[0.34733999999999989,
			0.84,
			0.26039999999999999,
			1.0],
			"metallicFactor":0.0,
			"roughnessFactor":0.5678071905112637
		},
		"emissiveFactor":[0.0,
		0.0,
		0.0],
		"alphaMode":"OPAQUE",
		"doubleSided":false,
		"name":"MI_Hot_Blued_Steel_shlaednc_4K"
	}]
}