{
	"bufferViews":[{
		"buffer":0,
		"byteOffset":0,
		"byteLength":100824,
		"target":34963
	},
	{
		"buffer":0,
		"byteOffset":100824,
		"byteLength":534336,
		"target":34962,
		"byteStride":32
	}],
	"asset":{
		"version":"2.0",
		"generator":"Epic Games Unreal Engine 5.1.1-23901901+++UE5+Release-5.1"
	},
	"scenes":[{
		"nodes":[0]
	}],
	"nodes":[{
		"name":"이종원obj",
		"mesh":0,
		"translation":[19.783000946044923,
		-28.985994338989259,
		54.45330047607422],
		"rotation":[0.019845163449645044,
		-0.13267061114311219,
		0.8059365749359131,
		-0.5766028761863709],
		"scale":[0.019780192524194719,
		0.019780192524194719,
		0.019780192524194719]
	}],
	"meshes":[{
		"name":"이종원obj",
		"primitives":[{
			"attributes":{
				"POSITION":1,
				"NORMAL":2,
				"TEXCOORD_0":3
			},
			"indices":0,
			"material":0
		}]
	}],
	"accessors":[{
		"bufferView":0,
		"type":"SCALAR",
		"count":50412,
		"componentType":5123,
		"min":[0],
		"byteOffset":0,
		"max":[16697]
	},
	{
		"bufferView":1,
		"type":"VEC3",
		"count":16698,
		"componentType":5126,
		"min":[-30.0,
		-30.0000057220459,
		-30.0000057220459],
		"byteOffset":0,
		"max":[30.0,
		30.0000057220459,
		30.0000057220459]
	},
	{
		"bufferView":1,
		"type":"VEC3",
		"count":16698,
		"componentType":5126,
		"min":[-0.9998193979263306,
		-0.999938428401947,
		-1.0],
		"byteOffset":12,
		"max":[0.9998379945755005,
		0.999938428401947,
		1.0]
	},
	{
		"bufferView":1,
		"type":"VEC2",
		"count":16698,
		"componentType":5126,
		"min":[0.00017642974853515625,
		0.00014412403106689453],
		"byteOffset":24,
		"max":[0.998046875,
		1.0]
	}],
	"buffers":[{
		"uri":"data:application/octet-stream;base64,",
		"byteLength":635160
	}],
	"materials":[{
		"pbrMetallicRoughness":{
			"baseColorFactor":[0.040000000000000038,
			0.35999999999999979,
			1.0,
			1.0],
			"metallicFactor":1.0,
			"roughnessFactor":0.36
		},
		"emissiveFactor":[0.0,
		0.0,
		0.0],
		"alphaMode":"OPAQUE",
		"doubleSided":false,
		"name":"MI_Hot_Blued_Steel_shlaednc_4K"
	}]
}