{
	"bufferViews":[{
		"buffer":0,
		"byteOffset":0,
		"byteLength":4404,
		"target":34963
	},
	{
		"buffer":0,
		"byteOffset":4404,
		"byteLength":19040,
		"target":34962,
		"byteStride":32
	},
	{
		"buffer":1,
		"byteOffset":0,
		"byteLength":4404,
		"target":34963
	},
	{
		"buffer":1,
		"byteOffset":4404,
		"byteLength":19040,
		"target":34962,
		"byteStride":32
	}],
	"asset":{
		"version":"2.0",
		"generator":"Epic Games Unreal Engine 5.1.1-23901901+++UE5+Release-5.1"
	},
	"scenes":[{
		"nodes":[0]
	}],
	"nodes":[{
		"name":"Null",
		"translation":[27.589582443237306,
		-19.09288215637207,
		50.36073684692383],
		"rotation":[0.0,
		-5.551115123125783e-17,
		0.0,
		-1.0],
		"scale":[0.9985035061836243,
		0.9985035061836243,
		0.9985035061836243],
		"children":[1,
		2]
	},
	{
		"name":"이홍규",
		"mesh":0
	},
	{
		"name":"이홍규2",
		"mesh":1
	}],
	"meshes":[{
		"name":"이홍규",
		"primitives":[{
			"attributes":{
				"POSITION":1,
				"NORMAL":2,
				"TEXCOORD_0":3
			},
			"indices":0,
			"material":0
		}]
	},
	{
		"name":"이홍규2",
		"primitives":[{
			"attributes":{
				"POSITION":5,
				"NORMAL":6,
				"TEXCOORD_0":7
			},
			"indices":4,
			"material":1
		}]
	}],
	"accessors":[{
		"bufferView":0,
		"type":"SCALAR",
		"count":2202,
		"componentType":5123,
		"min":[0],
		"byteOffset":0,
		"max":[594]
	},
	{
		"bufferView":1,
		"type":"VEC3",
		"count":595,
		"componentType":5126,
		"min":[-0.24929428100585938,
		-0.35676291584968569,
		1.6615654230117798],
		"byteOffset":0,
		"max":[0.6888075470924377,
		0.3567650318145752,
		2.5996663570404054]
	},
	{
		"bufferView":1,
		"type":"VEC3",
		"count":595,
		"componentType":5126,
		"min":[-0.7071068286895752,
		-1.0,
		-0.7071068286895752],
		"byteOffset":12,
		"max":[0.9987896084785461,
		1.0,
		0.9987896084785461]
	},
	{
		"bufferView":1,
		"type":"VEC2",
		"count":595,
		"componentType":5126,
		"min":[0.0,
		0.0],
		"byteOffset":24,
		"max":[1.0,
		0.9892578125]
	},
	{
		"bufferView":2,
		"type":"SCALAR",
		"count":2202,
		"componentType":5123,
		"min":[0],
		"byteOffset":0,
		"max":[594]
	},
	{
		"bufferView":3,
		"type":"VEC3",
		"count":595,
		"componentType":5126,
		"min":[-0.6888136863708496,
		-0.3567638397216797,
		1.2220454216003419],
		"byteOffset":0,
		"max":[0.24928855895996095,
		0.35676509141921999,
		2.1601474285125734]
	},
	{
		"bufferView":3,
		"type":"VEC3",
		"count":595,
		"componentType":5126,
		"min":[-0.9987896084785461,
		-1.0,
		-0.9987896084785461],
		"byteOffset":12,
		"max":[0.7071068286895752,
		0.9994623064994812,
		0.7071068286895752]
	},
	{
		"bufferView":3,
		"type":"VEC2",
		"count":595,
		"componentType":5126,
		"min":[0.0,
		0.0],
		"byteOffset":24,
		"max":[1.0,
		0.9892578125]
	}],
	"buffers":[{
		"uri":"data:application/octet-stream;base64,",
		"byteLength":23444
	},
	{
		"uri":"data:application/octet-stream;base64,",
		"byteLength":23444
	}],
	"materials":[{
		"pbrMetallicRoughness":{
			"baseColorFactor":[0.23569499999999997,
			0.5700000000000001,
			0.1767,
			1.0],
			"metallicFactor":0.0,
			"roughnessFactor":0.5678071905112637
		},
		"emissiveFactor":[0.0,
		0.0,
		0.0],
		"alphaMode":"OPAQUE",
		"doubleSided":false,
		"name":"MI_Hot_Blued_Steel_shlaednc_4K"
	},
	{
		"pbrMetallicRoughness":{
			"baseColorFactor":[0.8300000000000001,
			0.8300000000000001,
			0.8300000000000001,
			1.0],
			"metallicFactor":0.0,
			"roughnessFactor":0.5678071905112637
		},
		"emissiveFactor":[0.0,
		0.0,
		0.0],
		"alphaMode":"OPAQUE",
		"doubleSided":false,
		"name":"MI_Hot_Blued_Steel_shlaednc_4K"
	}]
}