{
	"bufferViews":[{
		"buffer":0,
		"byteOffset":0,
		"byteLength":429660,
		"target":34963
	},
	{
		"buffer":0,
		"byteOffset":429660,
		"byteLength":1172640,
		"target":34962,
		"byteStride":32
	}],
	"asset":{
		"version":"2.0",
		"generator":"Epic Games Unreal Engine 5.1.1-23901901+++UE5+Release-5.1"
	},
	"scenes":[{
		"nodes":[0]
	}],
	"nodes":[{
		"name":"최다인",
		"mesh":0,
		"translation":[10.082511901855469,
		-28.62655258178711,
		54.26355743408203],
		"rotation":[0.0,
		-1.0106430784888625e-15,
		0.0,
		1.0],
		"scale":[0.11211304366588593,
		0.11211304366588593,
		0.11211304366588593]
	}],
	"meshes":[{
		"name":"최다인",
		"primitives":[{
			"attributes":{
				"POSITION":1,
				"NORMAL":2,
				"TEXCOORD_0":3
			},
			"indices":0,
			"material":0
		}]
	}],
	"accessors":[{
		"bufferView":0,
		"type":"SCALAR",
		"count":214830,
		"componentType":5123,
		"min":[0],
		"byteOffset":0,
		"max":[36644]
	},
	{
		"bufferView":1,
		"type":"VEC3",
		"count":36645,
		"componentType":5126,
		"min":[-5.2717976570129398,
		-4.983654975891113,
		-8.137131690979004],
		"byteOffset":0,
		"max":[5.2717976570129398,
		4.983654975891113,
		8.137131690979004]
	},
	{
		"bufferView":1,
		"type":"VEC3",
		"count":36645,
		"componentType":5126,
		"min":[-0.9998824000358582,
		-0.9999741315841675,
		-0.9998452067375183],
		"byteOffset":12,
		"max":[0.999947726726532,
		0.9999903440475464,
		0.9998936057090759]
	},
	{
		"bufferView":1,
		"type":"VEC2",
		"count":36645,
		"componentType":5126,
		"min":[0.0,
		0.00146484375],
		"byteOffset":24,
		"max":[0.59423828125,
		1.0]
	}],
	"buffers":[{
		"uri":"data:application/octet-stream;base64,",
		"byteLength":1602300
	}],
	"materials":[{
		"pbrMetallicRoughness":{
			"baseColorFactor":[0.2158605009317398,
			0.2158605009317398,
			0.2158605009317398,
			0.0],
			"metallicFactor":1.0,
			"roughnessFactor":1.0
		},
		"emissiveFactor":[0.0,
		0.0,
		0.0],
		"alphaMode":"BLEND",
		"doubleSided":false,
		"name":"MI_Glass_Clear_Inst"
	}]
}