{
	"bufferViews":[{
		"buffer":0,
		"byteOffset":0,
		"byteLength":5760,
		"target":34963
	},
	{
		"buffer":0,
		"byteOffset":5760,
		"byteLength":17888,
		"target":34962,
		"byteStride":32
	},
	{
		"buffer":1,
		"byteOffset":0,
		"byteLength":5754,
		"target":34963
	},
	{
		"buffer":1,
		"byteOffset":5756,
		"byteLength":18336,
		"target":34962,
		"byteStride":32
	},
	{
		"buffer":2,
		"byteOffset":0,
		"byteLength":72492,
		"target":34963
	},
	{
		"buffer":2,
		"byteOffset":72492,
		"byteLength":215040,
		"target":34962,
		"byteStride":32
	}],
	"asset":{
		"version":"2.0",
		"generator":"Epic Games Unreal Engine 5.1.1-23901901+++UE5+Release-5.1"
	},
	"scenes":[{
		"nodes":[0]
	}],
	"nodes":[{
		"name":"Merge3",
		"translation":[7.819062232971191,
		-8.098090171813965,
		50.191646575927737],
		"rotation":[0.0,
		0.0,
		0.0,
		-1.0],
		"scale":[1.0,
		1.0,
		1.0],
		"children":[1,
		2,
		3]
	},
	{
		"name":"Merge3-MI_Hot_Blued_Steel_shlaednc_4K",
		"mesh":0
	},
	{
		"name":"Merge3-MI_Hot_Blued_Steel_shlaednc_4K",
		"mesh":1
	},
	{
		"name":"Merge3-MI_Hot_Blued_Steel_shlaednc_4K",
		"mesh":2
	}],
	"meshes":[{
		"name":"Merge3-MI_Hot_Blued_Steel_shlaednc_4K",
		"primitives":[{
			"attributes":{
				"POSITION":1,
				"NORMAL":2,
				"TEXCOORD_0":3
			},
			"indices":0,
			"material":0
		}]
	},
	{
		"name":"Merge3-MI_Hot_Blued_Steel_shlaednc_4K",
		"primitives":[{
			"attributes":{
				"POSITION":5,
				"NORMAL":6,
				"TEXCOORD_0":7
			},
			"indices":4,
			"material":0
		}]
	},
	{
		"name":"Merge3-MI_Hot_Blued_Steel_shlaednc_4K",
		"primitives":[{
			"attributes":{
				"POSITION":9,
				"NORMAL":10,
				"TEXCOORD_0":11
			},
			"indices":8,
			"material":1
		}]
	}],
	"accessors":[{
		"bufferView":0,
		"type":"SCALAR",
		"count":2880,
		"componentType":5123,
		"min":[0],
		"byteOffset":0,
		"max":[558]
	},
	{
		"bufferView":1,
		"type":"VEC3",
		"count":559,
		"componentType":5126,
		"min":[-0.7302525043487549,
		-1.3365145921707154,
		-0.42334988713264468],
		"byteOffset":0,
		"max":[-0.33867207169532778,
		-0.944934070110321,
		-0.03027365915477276]
	},
	{
		"bufferView":1,
		"type":"VEC3",
		"count":559,
		"componentType":5126,
		"min":[-0.9961973428726196,
		-0.9961973428726196,
		-1.0],
		"byteOffset":12,
		"max":[0.9961973428726196,
		0.9961973428726196,
		1.0]
	},
	{
		"bufferView":1,
		"type":"VEC2",
		"count":559,
		"componentType":5126,
		"min":[0.0,
		0.0],
		"byteOffset":24,
		"max":[1.0,
		1.0]
	},
	{
		"bufferView":2,
		"type":"SCALAR",
		"count":2877,
		"componentType":5123,
		"min":[0],
		"byteOffset":0,
		"max":[572]
	},
	{
		"bufferView":3,
		"type":"VEC3",
		"count":573,
		"componentType":5126,
		"min":[-0.04233527556061745,
		0.5177078247070313,
		0.37947747111320498],
		"byteOffset":0,
		"max":[0.6769483685493469,
		1.23699152469635,
		1.099678874015808]
	},
	{
		"bufferView":3,
		"type":"VEC3",
		"count":573,
		"componentType":5126,
		"min":[-0.9961973428726196,
		-0.9961973428726196,
		-0.9951874017715454],
		"byteOffset":12,
		"max":[0.9961973428726196,
		0.9961973428726196,
		1.0]
	},
	{
		"bufferView":3,
		"type":"VEC2",
		"count":573,
		"componentType":5126,
		"min":[0.0,
		0.0],
		"byteOffset":24,
		"max":[1.0,
		0.9833984375]
	},
	{
		"bufferView":4,
		"type":"SCALAR",
		"count":36246,
		"componentType":5123,
		"min":[0],
		"byteOffset":0,
		"max":[6719]
	},
	{
		"bufferView":5,
		"type":"VEC3",
		"count":6720,
		"componentType":5126,
		"min":[-0.7333939075469971,
		-1.3308888673782349,
		-1.099678874015808],
		"byteOffset":0,
		"max":[0.7333939075469971,
		1.3365145921707154,
		0.5512111783027649]
	},
	{
		"bufferView":5,
		"type":"VEC3",
		"count":6720,
		"componentType":5126,
		"min":[-0.9886773228645325,
		-0.9421712160110474,
		-1.0],
		"byteOffset":12,
		"max":[0.9878377318382263,
		0.9676827788352966,
		1.0]
	},
	{
		"bufferView":5,
		"type":"VEC2",
		"count":6720,
		"componentType":5126,
		"min":[0.00048828125,
		0.00048828125],
		"byteOffset":24,
		"max":[0.99951171875,
		0.9990234375]
	}],
	"buffers":[{
		"uri":"data:application/octet-stream;base64,",
		"byteLength":23648
	},
	{
		"uri":"data:application/octet-stream;base64,",
		"byteLength":24092
	},
	{
		"uri":"data:application/octet-stream;base64,",
		"byteLength":287532
	}],
	"materials":[{
		"pbrMetallicRoughness":{
			"baseColorFactor":[1.0,
			0.76,
			0.040000000000000038,
			1.0],
			"metallicFactor":1.0,
			"roughnessFactor":0.36
		},
		"emissiveFactor":[0.0,
		0.0,
		0.0],
		"alphaMode":"OPAQUE",
		"doubleSided":false,
		"name":"MI_Hot_Blued_Steel_shlaednc_4K"
	},
	{
		"pbrMetallicRoughness":{
			"baseColorFactor":[1.0,
			0.040000000000000038,
			0.040000000000000038,
			1.0],
			"metallicFactor":1.0,
			"roughnessFactor":0.36
		},
		"emissiveFactor":[0.0,
		0.0,
		0.0],
		"alphaMode":"OPAQUE",
		"doubleSided":false,
		"name":"MI_Hot_Blued_Steel_shlaednc_4K"
	}]
}