{
	"asset":{
		"version":"2.0",
		"generator":"Epic Games Unreal Engine 5.1.1-23901901+++UE5+Release-5.1"
	},
	"scenes":[{
		"nodes":[0]
	}],
	"nodes":[{
		"name":"김고은",
		"mesh":0,
		"translation":[20.937030792236329,
		-6.93794059753418,
		49.73480224609375],
		"rotation":[-0.24089176952838899,
		-0.12767773866653443,
		-0.20911850035190583,
		0.9391160607337952],
		"scale":[1.0604009628295899,
		1.0604009628295899,
		1.0604009628295899]
	}],
	"meshes":[{
		"name":"김고은",
		"primitives":[{
			"attributes":{
				"NORMAL":2,
				"POSITION":1,
				"TEXCOORD_0":3
			},
			"indices":0,
			"material":0
		}]
	}],
	"accessors":[{
		"bufferView":0,
		"type":"SCALAR",
		"componentType":5123,
		"count":72,
		"byteOffset":0,
		"min":[0],
		"max":[23]
	},
	{
		"bufferView":1,
		"type":"VEC3",
		"componentType":5126,
		"count":24,
		"byteOffset":0,
		"min":[-1.0,
		-0.25,
		-0.8660399913787842],
		"max":[1.0,
		0.25,
		0.8660399913787842]
	},
	{
		"bufferView":1,
		"type":"VEC3",
		"componentType":5126,
		"count":24,
		"byteOffset":12,
		"min":[-1.0,
		-1.0,
		-1.0],
		"max":[1.0,
		1.0,
		1.0]
	},
	{
		"bufferView":1,
		"type":"VEC2",
		"componentType":5126,
		"count":24,
		"byteOffset":24,
		"min":[0.0,
		0.0],
		"max":[1.0,
		1.0]
	}],
	"bufferViews":[{
		"buffer":0,
		"byteOffset":0,
		"byteLength":144,
		"target":34963
	},
	{
		"buffer":0,
		"byteOffset":144,
		"byteLength":768,
		"target":34962,
		"byteStride":32
	}],
	"buffers":[{
		"uri":"data:application/octet-stream;base64,",
		"byteLength":912
	}],
	"materials":[{
		"pbrMetallicRoughness":{
			"baseColorFactor":[0.2158605009317398,
			0.2158605009317398,
			0.2158605009317398,
			1.0],
			"metallicFactor":1.0,
			"roughnessFactor":1.0
		},
		"emissiveFactor":[0.0,
		0.0,
		0.0],
		"alphaMode":"OPAQUE",
		"doubleSided":false,
		"name":"MI_CarPaint_Mix_01_Inst"
	}]
}